HIERARCHY
ROOT Hips
{
	OFFSET	0.00	0.00	0.00
	CHANNELS 6 Xposition Yposition Zposition Zrotation Xrotation Yrotation
	JOINT LeftUpLeg
	{
		OFFSET	 0.126116	-0.014019	-0.065224
		CHANNELS 3 Zrotation Xrotation Yrotation
		JOINT LeftLeg
		{
			OFFSET	 0.000000	 0.000000	 0.569914
			CHANNELS 3 Zrotation Xrotation Yrotation
			JOINT LeftFoot
			{
				OFFSET	 0.000000	 0.000000	 0.544423
				CHANNELS 3 Zrotation Xrotation Yrotation
				JOINT LeftToeBase
				{
					OFFSET	 0.000000	 0.000000	 0.207117
					CHANNELS 3 Zrotation Xrotation Yrotation
					End Site
					{
						OFFSET	 0.000000	 0.000000	 0.207117
					}
				}
			}
		}
	}
	JOINT RightUpLeg
	{
		OFFSET	-0.124023	-0.008373	-0.065224
		CHANNELS 3 Zrotation Xrotation Yrotation
		JOINT RightLeg
		{
			OFFSET	 0.000000	 0.000000	 0.570047
			CHANNELS 3 Zrotation Xrotation Yrotation
			JOINT RightFoot
			{
				OFFSET	 0.000000	 0.000000	 0.544354
				CHANNELS 3 Zrotation Xrotation Yrotation
				JOINT RightToeBase
				{
					OFFSET	 0.000000	 0.000000	 0.207540
					CHANNELS 3 Zrotation Xrotation Yrotation
					End Site
					{
						OFFSET	 0.000000	 0.000000	 0.207540
					}
				}
			}
		}
	}
	JOINT Spine
	{
		OFFSET	 0.000184	-0.007763	 0.117403
		CHANNELS 3 Zrotation Xrotation Yrotation
		JOINT Spine1
		{
			OFFSET	 0.000000	 0.000000	 0.137269
			CHANNELS 3 Zrotation Xrotation Yrotation
			JOINT Spine2
			{
				OFFSET	 0.000000	 0.000000	 0.156879
				CHANNELS 3 Zrotation Xrotation Yrotation
				JOINT LeftShoulder
				{
					OFFSET	 0.080501	-0.002496	 0.160144
					CHANNELS 3 Zrotation Xrotation Yrotation
					JOINT LeftArm
					{
						OFFSET	 0.000000	 0.000000	 0.164363
						CHANNELS 3 Zrotation Xrotation Yrotation
						JOINT LeftForeArm
						{
							OFFSET	 0.000000	 0.000000	 0.364576
							CHANNELS 3 Zrotation Xrotation Yrotation
							JOINT LeftHand
							{
								OFFSET	 0.000000	 0.000000	 0.360812
								CHANNELS 3 Zrotation Xrotation Yrotation
								JOINT LeftHandIndex1
								{
									OFFSET	 0.000000	 0.000000	 0.086006
									CHANNELS 3 Zrotation Xrotation Yrotation
									JOINT LeftHandIndex2
									{
										OFFSET	 0.000000	 0.000000	 0.047236
										CHANNELS 3 Zrotation Xrotation Yrotation
										JOINT LeftHandIndex3
										{
											OFFSET	-0.004284	-0.000551	 0.038166
											CHANNELS 3 Zrotation Xrotation Yrotation
											End Site
											{
												OFFSET	-0.004284	-0.000551	 0.038166
											}
										}
									}
								}
							}
						}
					}
				}
				JOINT Neck
				{
					OFFSET	 0.000000	 0.000000	 0.176489
					CHANNELS 3 Zrotation Xrotation Yrotation
					JOINT Head
					{
						OFFSET	 0.000000	-0.001747	 0.077940
						CHANNELS 3 Zrotation Xrotation Yrotation
						End Site
						{
							OFFSET	 0.000000	-0.001747	 0.077940
						}
					}
				}
				JOINT RightShoulder
				{
					OFFSET	-0.080363	 0.000306	 0.159706
					CHANNELS 3 Zrotation Xrotation Yrotation
					JOINT RightArm
					{
						OFFSET	 0.000000	 0.000000	 0.164196
						CHANNELS 3 Zrotation Xrotation Yrotation
						JOINT RightForeArm
						{
							OFFSET	 0.000000	 0.000000	 0.365611
							CHANNELS 3 Zrotation Xrotation Yrotation
							JOINT RightHand
							{
								OFFSET	 0.000000	 0.000000	 0.360648
								CHANNELS 3 Zrotation Xrotation Yrotation
								JOINT RightHandIndex1
								{
									OFFSET	 0.000000	 0.000000	 0.069977
									CHANNELS 3 Zrotation Xrotation Yrotation
									JOINT RightHandIndex2
									{
										OFFSET	 0.000000	 0.000000	 0.052305
										CHANNELS 3 Zrotation Xrotation Yrotation
										JOINT RightHandIndex3
										{
											OFFSET	 0.009002	-0.000782	 0.042196
											CHANNELS 3 Zrotation Xrotation Yrotation
											End Site
											{
												OFFSET	 0.009002	-0.000782	 0.042196
											}
										}
									}
								}
							}
						}
					}
				}
			}
		}
	}
}
MOTION
Frames:    10
Frame Time: 0.03333334
-0.318568	 6.411233	-0.315220	 7.668676	 0.679903	 3.694509	 5.045289	-4.039991	 176.488800	-11.200710	-33.817380	-5.146693	 171.965900	 86.506380	 179.414500	-2.377144	 30.242990	-0.039179	 1.760743	-12.691850	 178.981700	 3.669389	-47.683100	 5.735442	-175.497200	 82.020240	-178.558900	 2.403667	 22.145150	-0.130177	 5.157501	 0.068051	-1.600570	 9.674957	-2.700480	 0.532277	 12.062440	-4.748511	 1.298959	-91.809820	 77.605650	 179.135300	 36.700780	 69.869320	-39.699470	-8.000726	-4.012540	-20.014690	 5.880476	-2.214833	-5.335547	-3.812334	 37.924440	-2.927599	-2.450526	 36.184240	 0.754587	-1.378229	 35.397820	-2.634230	 0.500797	 6.041867	-3.206509	 3.349244	-13.699740	-0.748111	 89.765170	 79.268880	-179.644200	-36.369200	 70.370210	 39.091270	 4.249231	-7.802695	 30.582070	-11.329560	-3.196354	 9.596486	 6.437017	 35.671460	-0.771858	 2.830251	 35.756010	-7.813440	-2.350882	 35.473990	 5.254307
-0.318169	 6.415735	-0.315585	 7.820535	 0.730215	 3.714592	 5.028861	-4.164190	 176.508700	-11.111190	-33.981200	-5.128084	 171.977600	 86.349500	 179.473200	-2.376522	 30.359730	-0.041769	 1.785939	-12.758190	 178.976700	 3.730953	-47.839040	 5.816333	-175.728000	 81.814540	-178.290100	 2.403621	 22.169000	-0.129697	 5.141368	 0.037984	-1.642409	 9.648058	-2.748896	 0.518358	 12.012060	-4.805293	 1.299420	-91.809630	 77.594520	 179.149700	 36.612880	 69.836060	-39.592000	-8.051059	-4.030207	-20.279470	 5.822973	-2.210604	-5.337038	-3.812334	 37.924440	-2.927599	-2.450526	 36.184240	 0.754587	-1.378229	 35.397820	-2.634230	 0.467800	 5.934032	-3.292989	 3.316982	-13.584790	-0.660831	 89.764490	 79.279540	-179.633300	-36.287010	 70.431290	 39.037660	 4.269454	-7.762825	 30.325490	-11.358040	-3.197328	 9.595919	 6.437017	 35.671460	-0.771858	 2.830251	 35.756010	-7.813440	-2.350882	 35.473990	 5.254307
-0.315635	 6.425077	-0.316621	 7.962203	 0.825016	 3.715909	 5.024457	-4.514908	 176.604600	-10.855430	-34.486860	-5.049335	 172.091200	 85.918560	 179.605900	-2.374785	 30.678410	-0.048871	 1.959116	-13.280580	 179.001900	 4.176127	-48.960310	 6.409198	-176.207500	 81.275700	-177.541300	 2.402760	 22.638150	-0.120205	 5.107041	 0.075093	-1.627753	 9.545564	-2.970932	 0.460936	 11.846600	-5.065460	 1.308161	-91.805110	 77.680480	 179.192300	 36.603040	 69.641160	-39.780020	-8.167083	-4.041729	-20.808440	 5.650696	-2.197515	-5.341124	-3.812334	 37.924440	-2.927599	-2.450526	 36.184240	 0.754587	-1.378229	 35.397820	-2.634230	 0.364230	 5.536304	-3.459041	 3.201626	-13.369380	-0.600251	 89.765280	 79.188350	-179.616400	-36.356140	 70.534370	 39.351080	 4.217412	-7.718364	 29.710800	-11.529690	-3.202059	 9.593277	 6.437017	 35.671460	-0.771858	 2.830251	 35.756010	-7.813440	-2.350882	 35.473990	 5.254307
-0.310634	 6.425191	-0.317699	 7.756741	 0.847470	 3.461143	 5.342106	-4.749030	 176.953500	-10.819380	-34.879040	-4.859234	 173.111100	 85.581990	 178.972200	-2.373827	 30.850730	-0.052721	 2.241352	-14.743460	 179.344900	 4.715614	-51.597910	 7.389397	-176.207200	 81.164790	-177.331200	 2.398430	 24.505430	-0.082004	 5.052571	 0.524909	-1.329414	 9.298681	-3.198417	 0.472793	 11.511810	-5.369325	 1.301314	-91.796300	 77.871450	 179.280000	 36.724420	 69.344930	-40.378530	-8.236357	-4.020601	-21.027480	 5.517185	-2.189364	-5.343849	-3.812334	 37.924440	-2.927599	-2.450526	 36.184240	 0.754587	-1.378229	 35.397820	-2.634230	 0.061757	 5.532332	-3.151948	 2.898439	-13.687110	-1.112126	 89.770310	 78.986210	-179.657500	-36.569760	 70.612270	 39.966130	 4.232052	-7.680815	 29.235240	-11.665730	-3.205625	 9.591182	 6.437017	 35.671460	-0.771858	 2.830251	 35.756010	-7.813440	-2.350882	 35.473990	 5.254307
-0.303943	 6.425293	-0.319279	 7.265609	 0.896433	 2.756910	 6.101164	-4.739542	 177.717300	-11.191620	-34.990050	-4.553950	 175.308000	 85.375180	 177.273300	-2.371605	 31.240460	-0.061471	 2.427134	-18.066710	-179.711800	 6.248919	-57.023680	 9.539922	-175.551200	 82.144350	-177.786300	 2.377654	 29.856910	 0.032083	 5.117868	 1.199822	-0.578074	 9.131409	-3.395914	 0.633799	 11.311960	-5.813611	 1.322200	-91.786480	 78.167980	 179.334800	 36.888610	 68.916490	-41.407280	-8.297455	-3.969633	-20.952020	 5.417945	-2.190513	-5.344095	-3.812334	 37.924440	-2.927599	-2.450526	 36.184240	 0.754587	-1.378229	 35.397820	-2.634230	-0.024601	 5.348738	-3.247476	 2.802965	-14.066290	-1.245338	 89.776030	 78.679630	-179.705100	-37.025690	 70.652510	 40.936680	 4.292617	-7.629742	 28.871090	-11.735140	-3.206810	 9.590345	 6.437017	 35.671460	-0.771858	 2.830251	 35.756010	-7.813440	-2.350882	 35.473990	 5.254307
-0.295976	 6.425025	-0.321791	 6.491291	 0.939241	 1.788606	 6.969192	-4.254862	 178.897700	-11.853750	-34.538460	-4.214314	 176.851100	 85.403510	 176.119700	-2.369010	 31.678730	-0.071376	 2.928312	-23.542000	-178.452800	 10.714110	-65.364880	 14.996660	-172.987400	 85.674010	-179.940500	 2.348719	 34.425090	 0.136746	 5.241646	 1.954894	 0.387114	 9.006938	-3.535070	 0.932528	 11.150170	-6.330302	 1.353169	-91.778800	 78.432390	 179.369000	 36.941440	 68.366380	-42.591220	-8.275951	-3.905686	-20.531480	 5.415362	-2.201848	-5.341132	-3.812334	 37.924440	-2.927599	-2.450526	 36.184240	 0.754587	-1.378229	 35.397820	-2.634230	-0.014479	 5.303315	-3.416931	 2.768577	-14.734800	-1.316616	 89.779680	 78.409400	-179.725700	-37.741090	 70.635570	 42.169160	 4.327045	-7.593256	 28.688760	-11.758700	-3.206978	 9.590098	 6.437017	 35.671460	-0.771858	 2.830251	 35.756010	-7.813440	-2.350882	 35.473990	 5.254307
-0.288244	 6.422583	-0.324634	 5.739145	 0.999485	 0.904488	 8.107312	-3.435373	 179.844800	-12.493500	-33.588550	-3.672740	 178.684200	 85.567430	 174.865000	-2.360965	 32.941840	-0.100315	 3.211066	-29.915650	-177.596800	 22.588880	-72.501730	 27.379460	-47.935760	 89.765930	 56.221200	 2.386111	 28.054340	-0.007219	 5.236817	 2.544344	 1.296426	 8.817246	-3.604457	 1.240791	 11.015980	-6.794039	 1.381109	-91.772860	 78.634830	 179.298000	 36.662670	 67.729870	-43.341990	-8.260787	-3.787020	-19.901520	 5.341145	-2.213213	-5.339049	-3.812334	 37.924440	-2.927599	-2.450526	 36.184240	 0.754587	-1.378229	 35.397820	-2.634230	 0.016865	 5.308546	-3.636774	 2.834395	-15.366450	-1.229111	 89.782080	 78.209470	-179.772800	-38.588210	 70.584370	 43.436320	 4.202046	-7.608938	 28.547560	-11.870780	-3.187628	 9.599373	 6.437017	 35.671460	-0.771858	 2.830251	 35.756010	-7.813440	-2.350882	 35.473990	 5.254307
-0.280266	 6.416029	-0.326103	 5.444295	 1.060420	 0.627475	 8.671864	-2.599223	-179.888200	-12.670310	-32.176040	-3.232911	-179.778100	 85.845030	 173.679200	-2.351828	 34.231090	-0.130519	 2.721832	-35.558880	-177.861500	 32.063890	-74.689880	 36.400700	-149.130800	 88.956200	 158.513300	 2.380642	 29.256600	 0.018881	 4.819133	 3.110765	 1.585271	 8.415935	-3.817962	 1.247489	 10.951350	-7.198275	 1.411366	-91.764950	 78.814680	 179.119800	 36.992890	 67.135310	-44.746010	-8.117992	-3.675009	-19.184500	 5.322819	-2.227180	-5.335917	-3.812334	 37.924440	-2.927599	-2.450526	 36.184240	 0.754587	-1.378229	 35.397820	-2.634230	 0.033330	 4.990015	-4.039476	 3.155745	-15.659320	-0.411806	 89.781690	 78.024380	 179.950300	-38.849190	 70.653210	 43.689220	 4.037162	-7.627609	 28.299760	-12.044070	-3.188016	 9.598709	 6.437017	 35.671460	-0.771858	 2.830251	 35.756010	-7.813440	-2.350882	 35.473990	 5.254307
-0.271442	 6.403033	-0.324954	 5.188958	 1.286178	 0.941677	 8.028057	-0.556093	-179.629700	-12.754780	-29.597450	-3.201046	 178.464100	 86.284110	 174.776100	-2.355379	 33.745450	-0.119055	 2.190856	-39.103740	-179.007900	 25.659550	-71.965110	 29.175060	-167.224500	 86.937010	 176.477900	 2.368008	 31.588560	 0.070828	 4.368886	 3.437042	 1.282437	 7.995401	-3.901363	 1.016387	 10.690400	-7.441988	 1.400142	-91.761080	 78.867600	 179.006300	 38.095370	 66.735480	-47.204940	-7.985376	-3.607986	-18.526820	 5.422143	-2.245773	-5.330483	-3.812334	 37.924440	-2.927599	-2.450526	 36.184240	 0.754587	-1.378229	 35.397820	-2.634230	-0.124337	 4.737626	-4.041741	 3.176155	-15.675000	-0.069545	 89.780300	 77.971150	 179.812300	-38.256850	 70.936920	 42.703240	 4.055248	-7.558234	 27.805150	-12.161880	-3.190510	 9.597048	 6.437017	 35.671460	-0.771858	 2.830251	 35.756010	-7.813440	-2.350882	 35.473990	 5.254307
-0.264460	 6.388836	-0.322485	 4.846926	 1.500243	 1.029812	 7.693872	 1.921623	-179.138200	-12.837440	-26.041890	-2.795525	 175.970800	 87.221390	 176.909000	-2.357804	 33.403120	-0.111041	 2.245628	-40.734440	-179.624800	 16.988530	-66.561780	 20.023510	-171.668700	 85.277110	-179.583700	 2.359270	 32.955930	 0.102198	 4.160391	 3.806369	 1.273988	 7.672668	-4.071662	 0.843542	 10.310400	-7.638474	 1.367670	-91.754250	 79.051550	 179.069300	 39.366280	 66.468280	-49.281520	-8.312599	-3.527540	-19.124220	 4.958530	-2.238186	-5.335629	-3.812334	 37.924440	-2.927599	-2.450526	 36.184240	 0.754587	-1.378229	 35.397820	-2.634230	-0.336162	 4.703872	-3.844795	 2.939068	-15.727680	-0.395967	 89.778240	 77.776310	 179.782700	-37.250060	 71.127210	 41.176550	 4.041495	-7.451995	 27.240860	-12.239720	-3.192071	 9.595931	 6.437017	 35.671460	-0.771858	 2.830251	 35.756010	-7.813440	-2.350882	 35.473990	 5.254307
